<?xml version="1.0" standalone="no"?>
<!DOCTYPE svg PUBLIC "-//W3C//DTD SVG 20010904//EN"
 "http://www.w3.org/TR/2001/REC-SVG-20010904/DTD/svg10.dtd">
<svg version="1.0" xmlns="http://www.w3.org/2000/svg"
 width="300.000000pt" height="268.000000pt" viewBox="0 0 300.000000 268.000000"
 preserveAspectRatio="xMidYMid meet">
<metadata>
Created by potrace 1.10, written by Peter Selinger 2001-2011
</metadata>
<g transform="translate(0.000000,268.000000) scale(0.100000,-0.100000)"
fill="#000000" stroke="none">
<path d="M1270 2400 c-44 -6 -44 -6 -18 -17 14 -7 29 -17 33 -22 7 -13 165
-13 165 -1 0 13 -84 50 -111 48 -13 0 -44 -4 -69 -8z"/>
<path d="M1452 2382 c22 -20 47 -32 64 -32 16 0 47 -5 69 -10 45 -10 53 -7 35
15 -24 29 -69 46 -138 52 l-66 6 36 -31z"/>
<path d="M1635 2359 c22 -26 48 -40 100 -56 38 -12 71 -20 74 -18 2 2 -12 20
-31 39 -31 31 -51 40 -143 62 l-30 7 30 -34z"/>
<path d="M1097 2365 c-54 -15 -70 -25 -41 -25 11 0 29 -6 39 -14 16 -11 26
-11 69 0 28 8 64 14 81 14 27 0 28 1 13 16 -22 22 -101 27 -161 9z"/>
<path d="M1817 2300 c15 -22 29 -40 33 -40 3 0 32 -15 63 -34 61 -37 69 -33
36 20 -14 23 -41 43 -84 64 -34 16 -65 30 -68 30 -3 0 6 -18 20 -40z"/>
<path d="M980 2321 c-14 -4 -45 -19 -70 -31 l-45 -24 42 -7 c33 -6 55 -2 113
20 40 16 68 31 64 34 -18 11 -80 16 -104 8z"/>
<path d="M1210 2289 c-423 -90 -742 -430 -799 -852 -18 -130 -36 -117 158
-117 l168 0 7 63 c17 168 107 331 239 435 82 64 118 85 207 118 68 25 88 28
210 28 113 1 146 -3 205 -21 160 -51 316 -181 392 -328 47 -90 63 -143 72
-230 l6 -60 168 -3 167 -2 0 52 c0 29 -9 92 -19 139 -69 311 -273 566 -562
704 -181 86 -427 115 -619 74z m335 -29 c110 -17 122 -21 111 -39 -8 -12 -92
-7 -130 8 -26 10 -34 9 -55 -7 -21 -16 -26 -27 -24 -58 3 -36 1 -39 -25 -39
-33 -1 -42 10 -42 52 0 23 -7 37 -24 49 -23 14 -28 14 -61 -2 -36 -17 -37 -18
-31 -59 6 -38 4 -42 -20 -54 -30 -13 -44 -3 -44 32 0 9 -9 26 -19 36 -22 22
-50 19 -92 -10 -14 -10 -29 -16 -32 -13 -10 10 -74 -27 -84 -49 -8 -18 -6 -29
13 -57 25 -36 19 -59 -11 -43 -9 6 -16 13 -16 16 5 35 -17 67 -45 67 -8 0 -40
-23 -70 -52 -43 -40 -54 -58 -51 -75 4 -19 0 -23 -23 -23 -29 0 -63 -31 -78
-70 -14 -38 8 -71 77 -115 l60 -39 -33 -60 c-37 -68 -71 -160 -82 -221 -13
-76 -12 -75 -137 -75 -62 0 -118 4 -125 9 -26 16 12 190 70 323 149 346 495
575 868 577 52 0 122 -4 155 -9z m271 -80 c293 -134 521 -444 550 -747 l7 -73
-127 0 c-145 0 -134 -7 -154 105 -7 35 -32 100 -60 155 l-48 95 30 20 c17 11
33 30 36 42 3 12 21 32 40 45 51 35 50 60 -4 115 -39 39 -50 45 -74 40 -27 -5
-29 -4 -24 19 6 32 -29 70 -72 80 -17 3 -48 22 -69 40 -20 19 -43 34 -50 34
-24 0 -46 -25 -62 -68 -8 -24 -24 -56 -35 -72 -11 -15 -17 -35 -14 -44 5 -13
2 -14 -25 -5 -17 6 -34 15 -37 20 -3 5 -9 7 -14 4 -5 -3 -21 0 -36 5 -21 8
-24 14 -16 22 9 9 19 8 41 -5 27 -16 30 -16 53 3 35 27 85 167 68 193 -10 17
-9 18 12 12 13 -4 50 -19 84 -35z m-456 21 c0 -5 -4 -11 -10 -13 -6 -2 -6 -25
1 -65 9 -52 15 -63 30 -63 12 0 23 10 29 26 12 29 30 23 30 -10 0 -21 -7 -24
-67 -34 -66 -11 -90 -8 -64 7 10 6 10 20 2 67 -6 32 -16 61 -21 62 -21 7 -9
21 23 25 17 2 35 5 40 5 4 1 7 -2 7 -7z m190 -11 c0 -5 -7 -10 -15 -10 -11 0
-13 -8 -8 -32 11 -59 19 -62 35 -11 22 69 42 67 58 -4 l13 -58 15 45 c11 32
12 45 4 48 -25 8 -10 22 23 22 39 0 42 -4 21 -26 -8 -8 -23 -41 -33 -74 -21
-72 -46 -81 -62 -22 -6 20 -11 44 -11 52 0 23 -15 -1 -30 -47 -20 -66 -44 -58
-60 20 -7 34 -19 72 -27 85 -13 22 -13 22 32 22 25 0 45 -4 45 -10z m-380 -35
c-10 -12 -8 -25 10 -70 25 -61 23 -59 51 -44 14 7 18 16 14 30 -4 13 -2 19 9
19 9 0 17 -7 18 -15 0 -8 1 -20 2 -26 1 -6 -26 -22 -58 -35 -71 -29 -69 -28
-62 -6 8 24 -29 116 -48 120 -26 5 -19 18 17 30 50 16 62 15 47 -3z m-114 -40
c-8 -23 45 -114 69 -117 16 -2 13 -7 -18 -25 -45 -27 -51 -28 -43 -7 9 23 -43
114 -66 114 -28 0 -22 15 15 33 41 20 51 21 43 2z m761 -7 c34 -12 44 -28 18
-28 -18 0 -71 -113 -55 -118 5 -2 8 -8 5 -13 -3 -4 -21 -1 -40 8 -36 17 -46
33 -21 33 16 0 60 96 52 116 -7 17 -2 17 41 2z m-892 -82 l-5 -44 44 -11 c25
-6 52 -8 60 -5 20 8 21 -10 1 -26 -10 -8 -30 -10 -62 -5 -48 7 -48 7 -29 -13
10 -12 24 -18 32 -15 22 8 16 -11 -11 -35 -28 -24 -47 -29 -39 -9 2 7 -12 32
-32 55 -27 31 -41 41 -55 37 -27 -9 -23 7 9 38 27 26 45 28 36 3 -3 -7 5 -21
17 -32 l21 -19 -7 35 c-4 19 -12 38 -18 42 -8 4 -5 14 7 27 29 32 37 25 31
-23z m565 -8 c0 -5 -11 -8 -25 -8 -29 0 -33 15 -8 29 17 9 32 -1 33 -21z m456
7 c27 -27 24 -45 -6 -45 -13 0 -17 5 -13 19 6 23 -14 38 -30 22 -9 -9 -6 -21
11 -52 18 -31 20 -43 12 -59 -14 -27 -69 -27 -98 0 -25 24 -27 31 -10 48 19
19 28 14 28 -13 0 -28 25 -44 42 -27 7 7 4 19 -11 40 -25 36 -26 55 -5 76 22
23 51 20 80 -9z m116 -108 c43 -38 46 -44 33 -61 -7 -10 -19 -15 -25 -11 -8 5
-8 11 0 20 7 9 6 16 -5 25 -13 10 -19 10 -35 -5 -19 -17 -19 -18 3 -35 12 -10
19 -22 15 -26 -5 -4 -17 1 -28 11 -19 17 -21 17 -40 0 -19 -17 -19 -19 -3 -37
10 -11 24 -16 35 -12 22 7 24 -9 2 -27 -13 -11 -23 -5 -67 41 -29 29 -45 50
-36 47 24 -8 113 85 97 101 -7 7 -8 12 -2 12 5 -1 30 -20 56 -43z m-1272 -28
c0 -15 -4 -19 -19 -14 -23 7 -38 -12 -22 -28 9 -9 19 -8 42 6 17 9 38 17 48
17 45 0 56 -63 17 -100 -27 -24 -56 -22 -56 6 0 11 5 14 16 10 19 -7 44 10 44
30 0 18 -24 18 -62 -2 -60 -31 -102 18 -62 74 20 29 54 29 54 1z"/>
<path d="M824 2236 c-17 -8 -50 -27 -73 -44 l-41 -30 40 -4 c33 -3 51 3 106
38 49 31 61 43 49 48 -24 9 -46 7 -81 -8z"/>
<path d="M1985 2214 c8 -23 33 -52 75 -86 62 -50 63 -51 56 -22 -4 16 -14 39
-22 52 -14 21 -102 91 -115 92 -4 0 -1 -16 6 -36z"/>
<path d="M675 2121 c-16 -10 -48 -37 -69 -60 l-40 -41 34 10 c18 5 37 7 42 4
4 -3 27 13 51 35 23 22 51 47 62 55 19 15 18 15 -15 16 -19 0 -48 -9 -65 -19z"/>
<path d="M2135 2100 c6 -35 18 -57 56 -97 l49 -52 0 30 c0 41 -20 76 -70 124
l-42 40 7 -45z"/>
<path d="M578 2003 c-25 -10 -51 -34 -78 -71 -21 -31 -38 -57 -37 -59 2 -1 19
3 38 10 23 8 52 33 82 70 62 75 61 78 -5 50z"/>
<path d="M2260 1967 c0 -37 8 -58 39 -106 21 -33 41 -57 45 -54 21 21 -8 107
-58 172 l-26 35 0 -47z"/>
<path d="M469 1847 c-31 -21 -97 -132 -86 -144 3 -2 19 5 37 16 20 12 46 44
66 82 19 35 34 64 34 66 0 9 -21 0 -51 -20z"/>
<path d="M2362 1807 c-9 -33 -7 -45 14 -90 13 -29 24 -60 24 -69 0 -26 17 -22
24 5 11 42 6 72 -23 132 l-28 60 -11 -38z"/>
<path d="M1478 1752 c-47 -31 -48 -42 -3 -35 l36 6 -3 -61 c-1 -34 -5 -57 -8
-52 -4 6 -19 -17 -35 -51 -16 -33 -37 -65 -47 -70 -19 -10 -111 -12 -146 -3
-34 10 -75 96 -82 172 l-5 64 -34 -24 c-39 -26 -57 -57 -23 -39 45 24 55 15
48 -41 -4 -29 -8 -69 -10 -90 -8 -84 -111 -330 -128 -306 -6 9 -7 6 -3 -8 3
-13 -2 -30 -14 -45 -10 -13 -26 -42 -35 -64 -9 -22 -22 -42 -28 -46 -17 -10
-1 -27 33 -34 17 -4 33 -14 36 -23 2 -10 12 -34 20 -55 19 -44 12 -55 -21 -38
-25 14 -66 1 -66 -20 0 -6 8 -6 21 1 15 8 29 8 51 1 24 -8 37 -8 59 3 17 9 31
10 37 4 13 -13 71 -13 84 0 7 7 20 6 42 -3 27 -11 37 -11 57 -1 19 10 30 10
54 0 24 -10 36 -9 62 1 20 8 35 10 38 4 8 -11 65 -12 84 0 8 5 23 4 38 -4 18
-10 33 -11 54 -3 21 7 38 7 57 -1 21 -9 36 -9 56 -1 16 6 38 8 50 5 21 -6 21
-6 1 10 -11 8 -26 12 -35 9 -31 -14 -70 -16 -70 -5 0 6 16 42 35 80 37 74 57
90 175 140 30 13 59 27 64 32 18 16 -2 21 -39 9 -28 -9 -39 -9 -50 0 -21 18
-236 306 -275 370 -18 30 -44 67 -57 81 -18 20 -26 43 -31 91 l-7 65 -37 -25z
m123 -264 c34 -51 105 -148 157 -216 52 -68 92 -125 90 -126 -1 -1 -19 -12
-39 -24 -54 -32 -84 -67 -112 -126 -19 -40 -33 -56 -55 -64 -17 -6 -33 -8 -35
-5 -7 6 -207 6 -214 0 -3 -3 -17 -1 -32 4 -16 6 -37 6 -51 1 -13 -5 -38 -6
-55 -2 -17 4 -39 4 -49 0 -11 -3 -42 -2 -69 3 -43 9 -51 15 -63 43 -8 18 -14
37 -14 43 0 15 40 20 69 9 40 -16 209 -21 243 -7 29 12 67 71 95 149 7 19 24
43 38 53 31 23 33 62 4 78 -19 10 -21 18 -17 70 3 36 11 65 21 77 14 16 16 30
11 76 -5 38 -3 56 4 56 6 0 39 -42 73 -92z m-120 49 c-9 -23 -31 -46 -31 -32
0 12 32 67 36 62 3 -2 0 -16 -5 -30z m-253 -24 c9 -21 23 -39 30 -39 6 -1 46
-2 87 -3 l75 -1 -36 -55 c-20 -30 -38 -55 -40 -55 -1 0 -21 26 -43 57 -23 32
-41 53 -41 47 0 -6 18 -36 40 -67 22 -31 36 -58 31 -61 -21 -14 -101 107 -126
192 -10 35 3 26 23 -15z m282 -18 c0 -9 -11 -20 -24 -24 -20 -8 -24 -18 -30
-81 -11 -107 -21 -128 -68 -141 -22 -5 -41 -9 -43 -7 -6 6 -9 77 -4 83 4 3 19
-11 34 -30 15 -20 29 -34 32 -31 3 3 -8 21 -25 42 l-30 36 38 60 c21 32 40 62
42 66 2 5 62 38 76 41 1 1 2 -6 2 -14z m-291 -156 c11 -90 10 -121 -4 -108 -2
3 -8 52 -13 109 l-9 105 -3 -180 c-1 -99 -1 -190 0 -202 2 -27 -7 -29 -38 -7
-18 12 -41 15 -98 12 -41 -2 -74 -3 -74 -2 0 0 7 15 15 31 15 30 16 30 63 22
26 -5 60 -14 76 -19 16 -6 29 -10 30 -10 1 0 3 55 5 123 2 67 5 133 6 147 1
14 3 42 4 64 1 31 4 36 14 27 8 -6 19 -53 26 -112z m86 -73 c16 -62 14 -131
-4 -131 -17 0 -36 63 -46 152 l-7 68 23 -22 c13 -12 28 -43 34 -67z m-170 -33
c-3 -38 -10 -72 -15 -76 -12 -13 -44 -4 -48 14 -2 14 56 129 66 129 2 0 1 -30
-3 -67z m375 34 c0 -16 -67 -39 -75 -27 -6 10 41 39 63 40 6 0 12 -6 12 -13z
m-76 -68 c-1 -21 -12 -54 -24 -75 l-24 -37 -11 34 c-7 19 -15 51 -18 71 -6 40
3 48 53 45 22 -2 25 -6 24 -38z m-181 -81 c5 -32 3 -38 -13 -38 -14 0 -19 10
-22 48 -5 53 12 91 23 51 3 -13 8 -41 12 -61z m120 -15 c2 -10 8 -26 12 -35 6
-16 -1 -18 -79 -18 -51 0 -86 4 -86 10 0 6 12 10 28 10 15 0 45 11 67 24 49
30 51 30 58 9z"/>
<path d="M409 1693 c-34 -21 -54 -55 -72 -125 l-15 -58 35 29 c26 21 41 47 58
97 13 38 22 70 21 71 0 1 -13 -6 -27 -14z"/>
<path d="M2432 1630 c-9 -29 -9 -53 -3 -83 6 -23 13 -55 16 -72 l7 -30 13 25
c8 14 14 42 15 62 0 41 -20 138 -29 138 -3 0 -12 -18 -19 -40z"/>
<path d="M346 1500 c-28 -34 -33 -49 -39 -128 l-4 -53 28 31 c22 24 32 47 40
101 6 39 9 73 6 75 -2 3 -16 -9 -31 -26z"/>
<path d="M1096 1389 c-31 -78 -54 -144 -52 -146 2 -2 29 60 60 138 31 78 54
144 52 146 -2 2 -29 -60 -60 -138z"/>
<path d="M2475 1452 c-17 -31 -19 -50 -15 -112 l5 -75 19 28 c22 33 31 106 19
159 l-8 37 -20 -37z"/>
<path d="M333 1320 c-23 -35 -31 -115 -17 -168 7 -25 7 -25 39 34 6 11 8 52 5
94 l-5 75 -22 -35z"/>
<path d="M2487 1264 c-33 -41 -62 -174 -38 -174 21 0 54 75 61 138 4 37 7 68
6 69 -1 1 -14 -14 -29 -33z"/>
<path d="M400 1265 c0 -11 6 -60 14 -110 56 -368 312 -677 662 -799 237 -83
516 -71 746 32 220 100 410 294 509 522 41 94 79 253 79 327 l0 48 -167 -1
-168 -2 -7 -70 c-15 -144 -90 -285 -213 -400 -124 -116 -271 -173 -445 -173
-156 1 -260 33 -391 122 -145 98 -260 291 -276 464 l-5 60 -169 0 c-162 0
-169 -1 -169 -20z m294 -31 c9 -8 16 -26 16 -38 0 -13 4 -36 9 -52 20 -63 22
-84 7 -84 -7 0 -24 -8 -36 -18 -37 -30 -19 -59 46 -78 30 -8 54 -18 54 -22 0
-4 -17 -16 -37 -27 -45 -25 -50 -38 -24 -64 l21 -21 46 21 c36 15 50 17 58 8
8 -8 7 -13 -2 -16 -8 -3 -29 -19 -47 -35 -35 -30 -36 -39 -5 -85 8 -13 24 -23
35 -23 32 0 85 37 85 60 0 27 6 26 54 -13 57 -45 147 -91 236 -119 108 -33
294 -33 395 0 172 58 268 129 401 299 25 32 25 32 46 13 28 -25 83 -36 103
-20 8 7 20 30 26 51 15 47 6 60 -57 86 -43 17 -45 20 -39 48 4 17 12 55 18 85
l12 55 125 0 125 0 3 -37 c5 -55 -43 -228 -88 -323 -68 -142 -200 -297 -322
-379 -108 -73 -268 -137 -386 -157 -78 -12 -238 -15 -303 -4 -151 24 -271 71
-400 157 -151 99 -253 216 -332 380 -57 121 -111 328 -92 358 4 6 55 10 120
10 90 0 117 -3 129 -16z m1452 -214 c15 0 24 -6 24 -15 0 -18 -4 -18 -33 -4
-22 10 -22 10 1 -10 29 -25 28 -31 -5 -32 -24 -2 -25 -2 -5 -6 23 -5 29 -18
12 -28 -5 -3 -10 -2 -10 3 0 9 -47 27 -62 24 -5 -1 -8 5 -8 13 0 10 10 15 32
15 l31 0 -20 23 c-24 26 -21 56 4 32 8 -8 25 -15 39 -15z m-1366 6 c0 -8 3
-21 6 -30 4 -10 1 -16 -9 -16 -11 0 -13 6 -9 22 3 14 2 19 -6 14 -7 -4 -12
-14 -12 -22 0 -8 -4 -14 -10 -14 -5 0 -10 8 -10 17 0 13 -3 14 -12 5 -18 -18
-28 -15 -28 9 0 15 5 19 15 15 8 -3 25 -1 37 4 32 12 38 12 38 -4z m40 -110
c0 -2 3 -12 6 -21 5 -11 2 -16 -7 -15 -25 4 -37 0 -54 -17 -14 -14 -18 -14
-26 -2 -12 20 -11 30 4 27 18 -3 57 12 57 23 0 5 5 9 10 9 6 0 10 -2 10 -4z
m53 -102 c3 -4 0 -19 -9 -35 -9 -18 -10 -29 -4 -29 6 0 13 7 16 15 5 12 9 13
20 4 12 -10 7 -15 -27 -31 -23 -10 -44 -16 -46 -14 -3 2 3 16 12 30 10 14 13
26 7 26 -6 0 -16 -8 -21 -17 -9 -16 -12 -16 -20 -3 -8 11 -3 17 20 27 16 6 29
17 29 23 0 11 13 14 23 4z"/>
<path d="M2006 864 c-24 -23 -20 -40 18 -82 l34 -37 22 20 c12 11 28 32 36 47
13 25 12 28 -12 47 -32 25 -76 27 -98 5z m97 -40 c-6 -17 -23 -18 -23 -2 0 9
-3 9 -12 0 -10 -10 -10 -15 1 -21 7 -5 10 -14 7 -20 -9 -14 -26 -14 -26 0 0 6
-9 22 -20 36 -29 37 -25 41 29 30 36 -7 48 -13 44 -23z"/>
<path d="M1911 746 c-23 -24 -23 -25 -5 -54 26 -45 59 -60 92 -41 39 21 39 50
1 87 -39 38 -58 40 -88 8z m59 -6 c0 -5 -7 -10 -15 -10 -8 0 -15 -5 -15 -11 0
-6 9 -8 22 -3 19 6 21 5 11 -8 -7 -8 -10 -18 -6 -21 11 -12 23 -8 23 8 0 15
12 20 23 9 6 -7 -33 -54 -45 -54 -4 0 -8 6 -8 14 0 8 -11 23 -24 34 -23 18
-24 20 -8 35 18 19 42 23 42 7z"/>
<path d="M914 686 c-40 -40 -41 -45 -13 -80 39 -50 119 -20 119 45 0 30 -33
69 -58 69 -8 0 -29 -15 -48 -34z m68 -3 c24 -21 23 -45 -3 -69 -18 -17 -23
-17 -46 -4 -36 20 -38 34 -8 50 14 7 25 19 25 27 0 17 10 16 32 -4z"/>
<path d="M945 650 c-21 -23 -12 -39 13 -24 19 12 29 44 14 44 -5 0 -17 -9 -27
-20z"/>
<path d="M1830 673 c-8 -4 -22 -15 -31 -27 -21 -26 -13 -43 36 -81 l37 -28 21
22 c18 18 20 24 9 41 -6 11 -12 29 -12 40 0 15 -29 43 -42 39 -2 0 -10 -3 -18
-6z m40 -22 c0 -5 -5 -11 -11 -13 -16 -5 11 -48 31 -48 12 -1 11 -4 -4 -15
-18 -14 -21 -12 -34 15 -14 29 -32 40 -32 19 0 -5 -4 -7 -10 -4 -16 10 -12 19
18 37 31 20 42 22 42 9z"/>
<path d="M1148 573 c-9 -10 -18 -37 -21 -60 -9 -71 32 -85 82 -28 41 47 40 55
-11 88 -33 21 -32 21 -50 0z m30 -31 c2 -12 8 -20 13 -16 5 3 7 10 4 15 -7 11
-3 11 19 3 12 -5 9 -11 -14 -30 -16 -14 -27 -31 -24 -39 4 -10 0 -12 -15 -8
-22 6 -29 23 -10 23 8 0 10 14 6 41 -4 28 -2 39 6 36 7 -2 13 -13 15 -25z"/>
<path d="M1585 543 c-19 -19 -15 -62 10 -100 12 -18 21 -22 43 -17 61 15 72
53 34 112 -17 27 -63 30 -87 5z m70 -29 c1 -12 7 -29 14 -38 11 -13 11 -16 -1
-16 -8 0 -20 6 -27 13 -11 10 -13 9 -8 -5 3 -9 0 -19 -9 -22 -10 -4 -14 2 -14
22 0 15 -4 34 -10 42 -11 18 6 31 35 28 13 -2 20 -11 20 -24z"/>
<path d="M1276 517 c-33 -33 -24 -87 17 -101 65 -23 119 39 80 93 -27 35 -66
39 -97 8z m74 -11 c28 -35 -11 -93 -47 -70 -25 16 -28 42 -7 65 20 23 37 24
54 5z"/>
<path d="M1305 479 c-8 -23 7 -45 24 -35 6 4 11 18 11 32 0 30 -26 32 -35 3z"/>
<path d="M1432 518 c-21 -21 -14 -77 12 -103 41 -41 96 -6 96 60 0 40 -16 55
-60 55 -20 0 -41 -5 -48 -12z m43 -43 c0 -19 5 -35 10 -35 6 0 10 16 10 35 0
28 4 35 20 35 13 0 16 -3 8 -8 -6 -4 -13 -23 -15 -42 -3 -30 -7 -35 -28 -35
-22 0 -26 5 -31 43 -4 34 -2 42 10 42 12 0 16 -10 16 -35z"/>
<path d="M346 1128 c-17 -45 -17 -49 0 -118 l19 -71 17 41 c17 39 17 44 0 118
l-18 77 -18 -47z"/>
<path d="M2464 1082 c-23 -19 -39 -48 -56 -99 -14 -40 -21 -73 -17 -73 24 0
70 67 88 127 11 37 19 68 18 69 -1 1 -16 -10 -33 -24z"/>
<path d="M396 975 c-14 -38 -4 -102 24 -155 24 -45 29 -50 30 -30 0 14 4 31 9
38 5 9 -3 40 -22 85 -35 85 -33 82 -41 62z"/>
<path d="M2404 900 c-27 -13 -76 -86 -103 -153 -6 -15 52 19 76 45 21 22 69
117 61 122 -1 1 -17 -5 -34 -14z"/>
<path d="M470 777 c0 -34 9 -58 40 -105 22 -34 41 -62 43 -62 3 0 4 19 4 42 0
31 -10 57 -39 105 -22 34 -42 63 -44 63 -2 0 -4 -20 -4 -43z"/>
<path d="M2320 735 c-41 -15 -140 -128 -116 -133 23 -5 73 25 99 60 29 40 61
88 56 87 -2 -1 -20 -7 -39 -14z"/>
<path d="M570 649 c1 -40 35 -101 80 -144 39 -37 42 -38 36 -15 -3 14 -6 34
-6 45 -1 11 -25 47 -55 79 -48 52 -55 56 -55 35z"/>
<path d="M2194 581 c-17 -3 -57 -30 -90 -59 l-59 -54 40 7 c53 9 83 26 130 74
39 41 37 44 -21 32z"/>
<path d="M700 513 c0 -31 37 -81 87 -117 26 -20 51 -36 54 -36 4 0 1 17 -6 37
-16 45 -135 148 -135 116z"/>
<path d="M1960 416 l-65 -41 43 -3 c43 -3 88 17 151 66 l23 19 -43 0 c-34 -1
-59 -10 -109 -41z"/>
<path d="M854 393 c8 -16 25 -38 38 -49 23 -22 128 -78 128 -70 0 3 -9 21 -21
40 -13 23 -43 47 -85 70 -36 20 -67 36 -70 36 -2 0 2 -12 10 -27z"/>
<path d="M1803 336 c-79 -32 -80 -46 -3 -45 49 0 178 58 132 59 -13 0 -31 4
-40 8 -11 6 -41 -2 -89 -22z"/>
<path d="M1010 329 c0 -27 69 -75 130 -92 34 -10 64 -16 65 -15 2 2 -9 17 -25
35 -18 20 -48 37 -79 47 -27 8 -59 19 -70 26 -16 8 -21 8 -21 -1z"/>
<path d="M1640 284 c-25 -7 -55 -13 -68 -13 -33 -1 -18 -18 27 -32 32 -10 52
-8 111 6 l72 18 -42 18 c-23 11 -45 18 -49 18 -3 -1 -26 -7 -51 -15z"/>
<path d="M1193 262 c28 -31 75 -49 147 -56 l65 -7 -35 30 c-22 18 -51 32 -80
36 -25 3 -61 9 -80 12 -35 6 -35 6 -17 -15z"/>
<path d="M1370 251 c0 -19 70 -41 128 -41 87 0 100 8 55 31 -39 20 -183 28
-183 10z"/>
</g>
</svg>
